<?xml version="1.0" encoding="UTF-8"?><svg id="Layer_2" xmlns="http://www.w3.org/2000/svg" width="242" height="242" xmlns:xlink="http://www.w3.org/1999/xlink" viewBox="0 0 242 242"><defs><style>.cls-1{fill:url(#linear-gradient);}</style><linearGradient id="linear-gradient" x1=".5" y1="121" x2="241.5" y2="121" gradientUnits="userSpaceOnUse"><stop offset="0" stop-color="#ff7bac"/><stop offset=".22" stop-color="#e097bf" stop-opacity=".76"/><stop offset=".6" stop-color="#abc8e1" stop-opacity=".36"/><stop offset=".87" stop-color="#89e7f6" stop-opacity=".1"/><stop offset="1" stop-color="#7df3ff" stop-opacity="0"/></linearGradient></defs><g id="Layer_1-2"><circle class="cls-1" cx="121" cy="121" r="120.5"/><path d="m121,1c32.05,0,62.19,12.48,84.85,35.15,22.66,22.67,35.15,52.8,35.15,84.85s-12.48,62.19-35.15,84.85c-22.67,22.67-52.8,35.15-84.85,35.15s-62.19-12.48-84.85-35.15S1,153.05,1,121,13.48,58.81,36.15,36.15C58.81,13.48,88.95,1,121,1m0-1C54.17,0,0,54.17,0,121s54.17,121,121,121,121-54.17,121-121S187.83,0,121,0h0Z"/><path d="m66.93,126.03c-12.37,0-21.16-2.73-26.37-8.2-5.21-5.47-7.81-13.9-7.81-25.29,0-12.11,3.24-21.89,9.72-29.35,6.48-7.45,16.19-11.18,29.15-11.18,12.24,0,20.96,2.73,26.17,8.2,5.21,5.47,7.81,14.1,7.81,25.88s-3.24,21.31-9.72,28.76c-6.48,7.46-16.13,11.18-28.96,11.18Zm2.15-61.62c-5.14,0-8.71,1.89-10.69,5.66-1.99,3.78-2.98,9.67-2.98,17.68,0,10.16,1.11,16.98,3.32,20.46,2.21,3.48,5.79,5.22,10.74,5.22s8.67-1.87,10.6-5.62c1.92-3.74,2.88-9.39,2.88-16.94,0-10.22-1.12-17.19-3.37-20.9s-5.75-5.57-10.5-5.57Zm29.98,128.12l-4.98,10.74c-1.95.06-4.46-.65-7.52-2.15-2.02-.91-3.16-1.95-3.42-3.12-.26-1.17.16-2.96,1.27-5.37L156.77,37.36c2.8.39,5.18,1.04,7.13,1.95,2.34,1.17,3.63,2.33,3.86,3.47.23,1.14-.05,2.56-.83,4.25l-67.87,145.51Zm79.59-4c-12.37,0-21.16-2.73-26.37-8.2s-7.81-13.87-7.81-25.2c0-12.11,3.24-21.89,9.72-29.35,6.48-7.45,16.2-11.18,29.15-11.18,12.24,0,20.96,2.73,26.17,8.2s7.81,14.1,7.81,25.88-3.24,21.29-9.72,28.71-16.13,11.13-28.96,11.13Zm2.15-61.52c-5.14,0-8.71,1.89-10.69,5.66-1.99,3.78-2.98,9.67-2.98,17.68,0,10.09,1.11,16.89,3.32,20.41s5.79,5.27,10.74,5.27,8.68-1.89,10.6-5.66c1.92-3.77,2.88-9.41,2.88-16.89,0-10.29-1.12-17.27-3.37-20.95-2.25-3.68-5.75-5.52-10.5-5.52Z"/></g></svg>