<?xml version="1.0" encoding="UTF-8"?><svg id="Layer_2" xmlns="http://www.w3.org/2000/svg" width="518" height="133" xmlns:xlink="http://www.w3.org/1999/xlink" viewBox="0 0 518 133"><defs><style>.cls-1{fill:url(#radial-gradient);stroke:#000;stroke-miterlimit:10;}</style><radialGradient id="radial-gradient" cx="259" cy="66.5" fx="259" fy="66.5" r="273.9" gradientTransform="translate(0 -27.92) scale(1 1.42)" gradientUnits="userSpaceOnUse"><stop offset="0" stop-color="#ff7bac"/><stop offset=".22" stop-color="#e082bf" stop-opacity=".76"/><stop offset=".6" stop-color="#ab90e1" stop-opacity=".36"/><stop offset=".87" stop-color="#8998f6" stop-opacity=".1"/><stop offset="1" stop-color="#7d9cff" stop-opacity="0"/></radialGradient></defs><g id="Layer_1-2"><rect class="cls-1" x=".5" y=".5" width="517" height="132" rx="33.24" ry="33.24"/><path d="m110.83,31.79c7.06,0,11.96.42,14.7,1.25s4.1,2.43,4.1,4.81c0,2.18-.88,4.12-2.64,5.81-6.84-3.12-13.18-4.69-19.04-4.69-4.13,0-7.06.82-8.76,2.47-1.71,1.64-2.56,3.91-2.56,6.81s1.02,5.44,3.05,7.23c2.03,1.79,5.9,3.58,11.6,5.37,6.74,2.02,11.84,4.34,15.31,6.96,3.47,2.62,5.3,6.86,5.49,12.72,0,6.54-2.24,11.49-6.71,14.84-4.48,3.35-11.32,5.03-20.53,5.03-6.41,0-11.28-.46-14.6-1.37s-4.98-2.6-4.98-5.08c0-2.25.94-4.23,2.83-5.96,6.45,3.52,13.15,5.27,20.12,5.27,4.79,0,8.19-.78,10.21-2.34,2.02-1.56,3.03-3.97,3.03-7.23,0-3.91-1.46-6.84-4.37-8.79-2.91-1.95-7.56-3.94-13.94-5.96-6.19-1.89-10.59-4.26-13.21-7.1-2.62-2.85-3.93-6.58-3.93-11.21,0-5.76,2.14-10.34,6.42-13.75,4.28-3.4,10.42-5.1,18.43-5.1Z"/><path d="m162.44,100.4c-7.06,0-12.26-1.87-15.58-5.62-3.32-3.74-4.98-9.39-4.98-16.94,0-8.69,2.01-15.45,6.03-20.26,4.02-4.82,9.82-7.23,17.41-7.23,7.06,0,12.26,1.87,15.58,5.62,3.32,3.74,4.98,9.41,4.98,16.99,0,8.66-2.01,15.4-6.03,20.21-4.02,4.82-9.82,7.23-17.41,7.23Zm1.86-6.54c3.71,0,6.4-1.4,8.06-4.2,1.66-2.8,2.49-7.11,2.49-12.94,0-6.71-.85-11.69-2.56-14.94-1.71-3.25-4.65-4.88-8.81-4.88-3.71,0-6.4,1.4-8.06,4.2-1.66,2.8-2.49,7.13-2.49,12.99,0,6.67.85,11.64,2.56,14.89,1.71,3.26,4.65,4.88,8.81,4.88Z"/><path d="m200.04,71.44c0-13.77-.06-22.53-.2-26.29s-.37-6.21-.71-7.35c-.34-1.14-.9-1.87-1.69-2.2-.78-.33-1.81-.49-3.08-.49-.42-1.01-.63-2-.63-2.98s.42-1.64,1.25-1.9c.83-.26,3.51-.39,8.03-.39,2.57,0,4.31.12,5.22.37s1.43.7,1.56,1.37c.13.67.2,1.81.2,3.44v40.87c.03,7.81.16,13.98.39,18.51h5.42c.39.85.59,1.76.59,2.73,0,.88-.18,1.48-.54,1.81-.36.33-1.04.49-2.05.49h-19.43c-.42-1.04-.63-2.02-.63-2.93,0-.72.18-1.25.54-1.59s.94-.51,1.76-.51h3.61c.26-4.52.39-12.17.39-22.95Z"/><path d="m257.61,95.51c-2.96,1.76-5.73,3.01-8.3,3.76-2.57.75-5.22,1.12-7.96,1.12-5.53,0-9.79-1.66-12.77-4.98s-4.47-9.08-4.47-17.29c0-9.05,1.99-15.94,5.96-20.68,3.97-4.74,9.91-7.1,17.82-7.1,1.89,0,3.47.1,4.74.29s2.47.44,3.61.73c0-2.41-.06-4.99-.17-7.74-.11-2.75-.34-4.7-.68-5.83-.34-1.14-.91-1.87-1.71-2.2-.8-.33-1.82-.49-3.05-.49-.42-1.01-.63-2-.63-2.98s.41-1.64,1.22-1.9c.81-.26,3.5-.39,8.06-.39,2.57,0,4.31.12,5.22.37.91.24,1.43.7,1.56,1.37.13.67.2,1.81.2,3.44v34.96c0,12.44.28,19.68.85,21.73.57,2.05,1.46,2.95,2.66,2.69.46.75.68,1.48.68,2.2,0,.91-1.08,1.77-3.25,2.59-2.17.81-3.93,1.22-5.3,1.22-.81,0-1.5-.29-2.05-.85-.55-.57-1.3-1.91-2.25-4.03Zm-11.38-38.62c-3.91,0-6.73,1.36-8.47,4.08-1.74,2.72-2.61,7.41-2.61,14.09,0,5.86.83,10.46,2.49,13.79,1.66,3.34,4.46,5,8.4,5,2.08,0,3.99-.42,5.71-1.25,1.72-.83,2.91-1.92,3.54-3.27.63-1.35.95-4.68.95-9.99v-19.92c-1.17-.65-2.6-1.24-4.27-1.76-1.68-.52-3.59-.78-5.74-.78Z"/><path d="m325.97,100.4c-7.06,0-12.26-1.87-15.58-5.62-3.32-3.74-4.98-9.39-4.98-16.94,0-8.69,2.01-15.45,6.03-20.26,4.02-4.82,9.82-7.23,17.41-7.23,7.06,0,12.26,1.87,15.58,5.62,3.32,3.74,4.98,9.41,4.98,16.99,0,8.66-2.01,15.4-6.03,20.21-4.02,4.82-9.82,7.23-17.41,7.23Zm1.86-6.54c3.71,0,6.4-1.4,8.06-4.2,1.66-2.8,2.49-7.11,2.49-12.94,0-6.71-.85-11.69-2.56-14.94-1.71-3.25-4.65-4.88-8.81-4.88-3.71,0-6.4,1.4-8.06,4.2-1.66,2.8-2.49,7.13-2.49,12.99,0,6.67.85,11.64,2.56,14.89,1.71,3.26,4.65,4.88,8.81,4.88Z"/><path d="m399.7,79.79c0,6.54.26,10.56.78,12.06.52,1.5,1.56,2.17,3.12,2,.39.78.59,1.55.59,2.29,0,1.2-.93,2.13-2.78,2.78s-3.66.98-5.42.98c-1.14,0-1.97-.23-2.49-.68-.52-.46-1.33-1.69-2.44-3.71-2.6,1.5-5.3,2.69-8.08,3.56s-5.71,1.32-8.76,1.32c-4.04,0-7.17-1.11-9.4-3.34-2.23-2.23-3.34-6.32-3.34-12.28,0-11.62-.06-18.68-.17-21.17-.11-2.49-.38-4.21-.81-5.15-.42-.94-.98-1.53-1.66-1.76-.68-.23-1.43-.34-2.25-.34-.42-.68-.63-1.45-.63-2.29,0-1.14.8-1.92,2.39-2.34,1.59-.42,3.81-.63,6.64-.63,2.25,0,3.78.14,4.61.42.83.28,1.35.73,1.56,1.37.21.63.32,2.78.32,6.42v18.41c0,6.67.74,11.04,2.22,13.09,1.48,2.05,3.54,3.08,6.18,3.08,1.86,0,3.66-.39,5.42-1.17s2.94-1.87,3.54-3.27c.6-1.4.9-4.1.9-8.11,0-9.31-.04-15.17-.12-17.58-.08-2.41-.31-4.13-.68-5.15-.38-1.03-.87-1.65-1.49-1.88-.62-.23-1.42-.34-2.39-.34-.42-.68-.63-1.45-.63-2.29,0-1.14.84-1.92,2.51-2.34,1.68-.42,3.77-.63,6.27-.63,2.25,0,3.78.14,4.61.42.83.28,1.35.77,1.56,1.49.21.72.32,2.9.32,6.54v20.26Z"/><path d="m414.74,51.57h3.32l3.96-13.87c1.37.42,2.53.93,3.49,1.51.96.59,1.67,1.28,2.12,2.08.46.8.68,3.56.68,8.28v2h16.06c.39,1.07.59,2.21.59,3.42,0,.94-.18,1.57-.54,1.88-.36.31-1.07.46-2.15.46h-13.96v23.1c0,5.5.5,9.12,1.51,10.86,1.01,1.74,2.53,2.66,4.57,2.76,2.03.1,4.53-.57,7.5-2,.72,1.07,1.07,2.25,1.07,3.52,0,1.73-.95,2.88-2.86,3.47s-4.91.88-9.01.88c-4.46,0-7.71-.91-9.74-2.73-2.04-1.82-3.05-5.22-3.05-10.21v-11.47c0-6.25-.18-12.3-.54-18.16h-4.79c-.39-1.17-.59-2.31-.59-3.42,0-.81.18-1.41.54-1.78.36-.37.96-.56,1.81-.56Z"/></g></svg>